<!DOCTYPE svg PUBLIC "-//W3C//DTD SVG 1.1//EN" "http://www.w3.org/Graphics/SVG/1.1/DTD/svg11.dtd">
<!-- Uploaded to: SVG Repo, www.svgrepo.com, Transformed by: SVG Repo Mixer Tools -->
<svg width="800px" height="800px" viewBox="0 -3.47 52.68 52.68" xmlns="http://www.w3.org/2000/svg" fill="#ffffff" stroke="#ffffff">
<g id="SVGRepo_bgCarrier" stroke-width="0"/>
<g id="SVGRepo_tracerCarrier" stroke-linecap="round" stroke-linejoin="round"/>
<g id="SVGRepo_iconCarrier"> <g id="Group_50" data-name="Group 50" transform="translate(-449.318 -569.91)"> <g id="Group_49" data-name="Group 49"> <path id="Path_31" data-name="Path 31" d="M500.5,615.653h-49.68a1.5,1.5,0,0,1-1.5-1.5v-30.4a1.5,1.5,0,0,1,1.5-1.5h10.466a1.5,1.5,0,1,1,0,3h-8.966v27.4H499v-27.4h-7.929a1.5,1.5,0,0,1,0-3H500.5a1.5,1.5,0,0,1,1.5,1.5v30.4A1.5,1.5,0,0,1,500.5,615.653Z" fill="#ffffff"/> </g> <path id="Path_32" data-name="Path 32" d="M486.464,593.6a1.5,1.5,0,0,0-2.121,0l-7.185,7.185V571.41a1.5,1.5,0,0,0-3,0v29.379l-7.185-7.186a1.5,1.5,0,1,0-2.121,2.121l9.745,9.745a1.488,1.488,0,0,0,.491.327l.023.007a1.452,1.452,0,0,0,1.094,0l.023-.007a1.492,1.492,0,0,0,.492-.327l9.744-9.745A1.5,1.5,0,0,0,486.464,593.6Z" fill="#ffffff"/> </g> </g>
</svg>